<svg width="33" height="39" viewBox="0 0 33 39" fill="none" xmlns="http://www.w3.org/2000/svg">
<path d="M33 5.22125C32.9999 5.16048 32.9935 5.10102 32.9842 5.04234C32.9819 5.02749 32.9795 5.01285 32.9767 4.99821C32.9656 4.9424 32.9516 4.88767 32.9327 4.83521C32.9295 4.82626 32.9253 4.81809 32.9218 4.80932C32.9042 4.7641 32.8836 4.7208 32.8605 4.67906C32.8536 4.66681 32.8471 4.65452 32.8398 4.64262C32.8117 4.59645 32.781 4.55254 32.7463 4.51214C32.7408 4.50563 32.7345 4.50007 32.7288 4.49373C32.6981 4.45976 32.665 4.42858 32.6299 4.39974C32.6193 4.39105 32.609 4.38232 32.5981 4.37415C32.5907 4.36864 32.5841 4.36212 32.5766 4.35682L26.5509 0.14689C26.2699 -0.0495624 25.9172 -0.0489542 25.6365 0.148671L16.5 6.57613L7.3635 0.148671C7.08304 -0.0489542 6.7299 -0.049519 6.44906 0.14689L0.423393 4.35682C0.415851 4.36208 0.409251 4.36864 0.401935 4.37415C0.391036 4.38232 0.380665 4.39105 0.370106 4.39974C0.334996 4.42858 0.301885 4.45976 0.271187 4.49373C0.265493 4.50007 0.259233 4.50563 0.253651 4.51214C0.219031 4.55258 0.188258 4.59645 0.160163 4.64262C0.152922 4.65452 0.146398 4.66677 0.139535 4.67906C0.116417 4.7208 0.0957885 4.7641 0.078177 4.80932C0.0747452 4.81814 0.0705214 4.8263 0.0673159 4.83521C0.0484222 4.88767 0.0344311 4.9424 0.0233438 4.99821C0.0204777 5.01285 0.0181017 5.02749 0.0158012 5.04234C0.00652406 5.10098 7.54241e-05 5.16048 0 5.22125C0 5.22155 3.77633e-05 5.2219 3.77633e-05 5.2222C3.77633e-05 5.22242 0 5.22259 0 5.22281V10.9322C0 11.2851 0.15956 11.6124 0.42098 11.7964L1.26961 12.3934V17.2709C1.26961 17.2772 1.27112 17.2831 1.27124 17.2894L0.42098 17.8875C0.414154 17.8923 0.408233 17.8983 0.401558 17.9033C0.39047 17.9115 0.380137 17.9205 0.369427 17.9293C0.334921 17.9576 0.302451 17.9883 0.272243 18.0216C0.265945 18.0286 0.259044 18.0348 0.252935 18.042C0.218353 18.0825 0.187467 18.1263 0.159447 18.1725C0.152394 18.184 0.146209 18.196 0.13961 18.2078C0.116606 18.2494 0.0960526 18.2925 0.0785165 18.3375C0.0748584 18.3468 0.0704837 18.3555 0.0670519 18.365C0.0481582 18.4176 0.0340917 18.4724 0.0230421 18.5283C0.0202514 18.5426 0.0180262 18.5569 0.0158012 18.5714C0.00659949 18.6296 0.000377119 18.6888 0.000263983 18.7491C0.000263983 18.75 0 18.7508 0 18.7517V24.4611C0 24.8151 0.160427 25.1433 0.423205 25.3271L1.26961 25.9184V32.8217C1.26961 33.3812 1.66329 33.8345 2.14898 33.8345C2.63468 33.8345 3.02835 33.3811 3.02835 32.8217V27.1473L4.09123 27.8898C4.07392 27.9691 4.062 28.0507 4.062 28.1362V37.9872C4.062 38.5466 4.45568 39 4.94137 39C5.4271 39 5.82074 38.5466 5.82074 37.9872V29.0982L6.44902 29.5371C6.48474 29.5621 6.52173 29.5837 6.55944 29.6023C6.56533 29.6052 6.57163 29.6069 6.57755 29.6096C6.61986 29.6291 6.66304 29.6442 6.70694 29.6558C6.72085 29.6595 6.73473 29.6628 6.74883 29.6657C6.80054 29.6764 6.85262 29.6838 6.905 29.6838C6.95734 29.6838 7.00942 29.6764 7.06113 29.6657C7.07546 29.6627 7.08956 29.6594 7.10367 29.6556C7.14632 29.6442 7.18829 29.6295 7.2294 29.6106C7.23664 29.6073 7.24433 29.6052 7.2515 29.6016C7.28974 29.5827 7.32719 29.5607 7.36339 29.5352L16.4998 23.1077L25.6364 29.5352C25.6726 29.5607 25.71 29.5827 25.7483 29.6016C25.7555 29.6052 25.7632 29.6073 25.7705 29.6106C25.8116 29.6294 25.8535 29.6442 25.8961 29.6556C25.9103 29.6593 25.9244 29.6627 25.9388 29.6657C25.9905 29.6764 26.0425 29.6838 26.0948 29.6838C26.1472 29.6838 26.1994 29.6764 26.2511 29.6656C26.2652 29.6627 26.279 29.6595 26.2928 29.6558C26.3369 29.644 26.3804 29.629 26.4229 29.6093C26.4286 29.6066 26.4347 29.605 26.4403 29.6023C26.4781 29.5836 26.5151 29.562 26.5509 29.537L27.0228 29.2073V37.9871C27.0228 38.5465 27.4165 38.9999 27.9022 38.9999C28.3879 38.9999 28.7816 38.5465 28.7816 37.9871V28.1362C28.7816 28.0853 28.7749 28.0365 28.7686 27.9876L29.815 27.2565V32.8218C29.815 33.3812 30.2087 33.8346 30.6944 33.8346C31.1801 33.8346 31.5738 33.3812 31.5738 32.8218V26.0277L32.5765 25.3272C32.8396 25.1434 33 24.8153 33 24.4611V18.7518C33 18.7509 32.9997 18.7501 32.9997 18.7492C32.9996 18.6888 32.9934 18.6297 32.9842 18.5714C32.982 18.557 32.9798 18.5426 32.977 18.5284C32.9659 18.4724 32.9518 18.4176 32.9329 18.365C32.9295 18.3555 32.9252 18.3469 32.9215 18.3376C32.9039 18.2926 32.8834 18.2494 32.8604 18.2078C32.8538 18.196 32.8476 18.1841 32.8406 18.1726C32.8126 18.1264 32.7816 18.0825 32.7471 18.042C32.7409 18.0349 32.7341 18.0286 32.7278 18.0217C32.6975 17.9883 32.6651 17.9576 32.6306 17.9293C32.6199 17.9205 32.6095 17.9115 32.5984 17.9033C32.5918 17.8983 32.5858 17.8924 32.579 17.8876L31.5739 17.1805V12.5035L32.579 11.7964C32.8404 11.6125 33 11.2851 33 10.9322V5.22285C33 5.22264 33 5.22246 33 5.22225C33 5.2219 33 5.22159 33 5.22125ZM31.2412 10.3641L26.5629 13.6553L24.1919 11.9873L31.2412 7.02823V10.3641ZM31.2412 23.8909L26.9743 26.872V23.532L31.2412 20.5508V23.8909ZM1.75881 23.8909V20.5508L6.02571 23.532V26.872L1.75881 23.8909ZM1.75881 10.3641V7.02823L8.8081 11.9873L6.43711 13.6553L1.75881 10.3641ZM17.3013 17.9622L25.2156 23.5298V26.8657L17.3013 21.2981V17.9622ZM30.4294 18.7488L26.0965 21.776L18.187 16.2118L22.505 13.1741L30.4294 18.7488ZM6.90357 21.776L2.57068 18.7488L26.0965 2.19863L30.4293 5.22581L6.90357 21.776ZM6.90357 2.19863L14.8131 7.76288L10.4951 10.8005L2.57072 5.22576L6.90357 2.19863ZM3.02843 13.6307L4.75017 14.842L3.02843 16.0533V13.6307ZM7.78448 26.8656V23.5298L15.5425 18.0721V21.4079L7.78448 26.8656ZM29.8151 15.9432L28.2499 14.842L29.8151 13.7408V15.9432Z" fill="white"/>
<path d="M17.5815 10.7976L17.5813 10.7972C17.0374 10.3433 16.1714 10.2853 15.5229 10.658C15.055 10.9268 14.7651 11.3814 14.7275 11.9054C14.6921 12.4 14.8869 12.8634 15.2622 13.177C15.5664 13.431 15.9715 13.5613 16.3832 13.5613C16.7071 13.5613 17.035 13.4806 17.321 13.3165C17.7887 13.0474 18.0786 12.5927 18.116 12.0689C18.1514 11.5743 17.9567 11.111 17.5815 10.7976Z" fill="white"/>
</svg>
