<svg width="97" height="30" viewBox="0 0 97 30" fill="none" xmlns="http://www.w3.org/2000/svg">
<path d="M18.6641 1.69336C18.6185 1.78451 18.5729 1.85742 18.5273 1.91211C18.4909 1.9668 18.459 2.00781 18.4316 2.03516C18.3952 2.07161 18.3633 2.0944 18.3359 2.10352C18.263 2.12174 18.1172 2.14909 17.8984 2.18555C17.6797 2.21289 17.3835 2.23568 17.0098 2.25391C16.7363 2.27214 16.3626 2.31315 15.8887 2.37695C15.4147 2.43164 14.8724 2.50456 14.2617 2.5957C13.6602 2.67773 13.0039 2.76432 12.293 2.85547C11.582 2.94661 10.8438 3.02409 10.0781 3.08789C10.0052 4.36393 9.95052 5.66732 9.91406 6.99805C9.88672 8.32878 9.86393 9.66862 9.8457 11.0176C9.82747 12.3574 9.80924 13.6973 9.79102 15.0371C9.7819 16.3678 9.76367 17.6758 9.73633 18.9609C9.73633 19.0065 9.7181 19.0521 9.68164 19.0977C9.64518 19.1341 9.61784 19.166 9.59961 19.1934C9.55404 19.3757 9.47201 19.5352 9.35352 19.6719C9.23503 19.7995 9.11198 19.8633 8.98438 19.8633C8.60156 19.8633 8.30534 19.804 8.0957 19.6855C7.89518 19.5671 7.72201 19.4395 7.57617 19.3027C7.51237 19.2207 7.44857 19.1022 7.38477 18.9473C7.33008 18.7832 7.27995 18.6055 7.23438 18.4141C7.1888 18.2135 7.14779 18.0039 7.11133 17.7852C7.07487 17.5573 7.05208 17.3431 7.04297 17.1426C7.02474 16.9421 7.01107 16.7461 7.00195 16.5547C6.99284 16.3633 6.98828 16.1673 6.98828 15.9668C6.98828 15.5293 7.00195 15.1009 7.0293 14.6816C7.05664 14.2624 7.07943 13.8704 7.09766 13.5059C7.10677 13.278 7.12044 12.9544 7.13867 12.5352C7.16602 12.1159 7.19792 11.6374 7.23438 11.0996C7.27083 10.5618 7.31185 9.98763 7.35742 9.37695C7.40299 8.75716 7.45768 8.13737 7.52148 7.51758C7.5944 6.89779 7.67188 6.29622 7.75391 5.71289C7.83594 5.12044 7.92708 4.58268 8.02734 4.09961C8.07292 3.95378 8.11393 3.8125 8.15039 3.67578C8.18685 3.52995 8.21875 3.37956 8.24609 3.22461C7.40755 3.2793 6.58724 3.30664 5.78516 3.30664C4.75521 3.30664 3.77539 3.2474 2.8457 3.12891C1.91602 3.0013 1.12305 2.78255 0.466797 2.47266C0.384766 2.42708 0.339193 2.34505 0.330078 2.22656C0.311849 2.10807 0.275391 1.98503 0.220703 1.85742C0.147786 1.75716 0.120443 1.64779 0.138672 1.5293C0.156901 1.40169 0.166016 1.29688 0.166016 1.21484C0.156901 1.13281 0.184245 1.07812 0.248047 1.05078C0.302734 1.02344 0.421224 1.01432 0.603516 1.02344C0.776693 1.02344 1.01823 1.03255 1.32812 1.05078C1.64714 1.06901 2.06185 1.07812 2.57227 1.07812C2.95508 1.07812 3.39258 1.06901 3.88477 1.05078C4.37695 1.03255 4.9375 1.00065 5.56641 0.955078C5.8763 0.927734 6.32292 0.886719 6.90625 0.832031C7.4987 0.768229 8.16406 0.708984 8.90234 0.654297C9.64974 0.590495 10.4427 0.535807 11.2812 0.490234C12.1198 0.444661 12.9492 0.421875 13.7695 0.421875C14.0794 0.421875 14.4258 0.440104 14.8086 0.476562C15.1914 0.503906 15.5697 0.544922 15.9434 0.599609C16.3262 0.654297 16.6771 0.718099 16.9961 0.791016C17.3242 0.863932 17.5931 0.936849 17.8027 1.00977C17.9395 1.06445 18.0215 1.11458 18.0488 1.16016C18.0762 1.19661 18.0853 1.22852 18.0762 1.25586C18.0762 1.2832 18.0716 1.30599 18.0625 1.32422C18.0534 1.34245 18.0762 1.36068 18.1309 1.37891C18.1855 1.39714 18.2448 1.41081 18.3086 1.41992C18.3724 1.42904 18.4316 1.44727 18.4863 1.47461C18.541 1.49284 18.5866 1.52018 18.623 1.55664C18.6595 1.5931 18.6732 1.63867 18.6641 1.69336ZM24.666 10.8125C24.6842 10.9401 24.6979 11.0859 24.707 11.25C24.7161 11.4049 24.7207 11.569 24.7207 11.7422C24.7207 12.1797 24.7025 12.6901 24.666 13.2734C24.6296 13.8568 24.584 14.5495 24.5293 15.3516C24.5111 15.6615 24.4974 16.0579 24.4883 16.541C24.4792 17.015 24.4746 17.5072 24.4746 18.0176C24.4746 18.4551 24.4792 18.8789 24.4883 19.2891C24.5065 19.6992 24.5293 20.0592 24.5566 20.3691C24.5749 20.5059 24.543 20.5788 24.4609 20.5879C24.3789 20.597 24.2878 20.5879 24.1875 20.5605C24.1419 20.5423 24.1009 20.5423 24.0645 20.5605C24.028 20.5788 23.9915 20.6016 23.9551 20.6289C23.9277 20.6562 23.8958 20.6745 23.8594 20.6836C23.832 20.7018 23.791 20.6882 23.7363 20.6426C23.6908 20.6061 23.6133 20.5514 23.5039 20.4785C23.3945 20.4056 23.276 20.3236 23.1484 20.2324C23.0299 20.1504 22.916 20.0592 22.8066 19.959C22.6973 19.8587 22.6152 19.7676 22.5605 19.6855C22.5059 19.5579 22.4694 19.2435 22.4512 18.7422C22.4329 18.2409 22.4238 17.6348 22.4238 16.9238V15.0781C22.4329 14.6771 22.4512 14.2806 22.4785 13.8887C22.5059 13.4967 22.5378 13.1185 22.5742 12.7539C22.6107 12.3893 22.6426 12.0475 22.6699 11.7285C22.6973 11.4004 22.7109 11.1042 22.7109 10.8398C22.7109 10.4206 22.6517 10.1061 22.5332 9.89648C22.5059 9.86003 22.4238 9.88281 22.2871 9.96484C22.1504 10.0469 21.9727 10.2201 21.7539 10.4844C21.5443 10.7487 21.3027 11.1224 21.0293 11.6055C20.765 12.0885 20.4824 12.7129 20.1816 13.4785C19.89 14.2441 19.5892 15.1693 19.2793 16.2539C18.9785 17.3385 18.6914 18.6146 18.418 20.082C18.3906 20.2096 18.3542 20.2962 18.3086 20.3418C18.2721 20.3965 18.1992 20.4238 18.0898 20.4238C18.0169 20.4238 17.9531 20.3646 17.8984 20.2461C17.8529 20.1367 17.7936 20.0456 17.7207 19.9727C17.5475 19.9727 17.388 19.9544 17.2422 19.918C17.1055 19.8724 17.0234 19.7585 16.9961 19.5762C16.9961 19.5124 16.9779 19.4531 16.9414 19.3984C16.9141 19.3438 16.8776 19.2845 16.832 19.2207C16.7956 19.1478 16.7591 19.0749 16.7227 19.002C16.6953 18.9199 16.6816 18.8242 16.6816 18.7148C16.709 18.0768 16.7318 17.3841 16.75 16.6367C16.7682 15.8802 16.7865 15.11 16.8047 14.3262C16.832 13.5332 16.8548 12.7402 16.873 11.9473C16.8913 11.1543 16.9141 10.3978 16.9414 9.67773C16.9688 8.94857 16.9915 8.27409 17.0098 7.6543C17.0371 7.02539 17.069 6.48307 17.1055 6.02734C17.2148 4.66927 17.3242 3.60286 17.4336 2.82812C17.543 2.04427 17.6113 1.58854 17.6387 1.46094C17.666 1.36979 17.6934 1.30143 17.7207 1.25586C17.748 1.21029 17.7708 1.17839 17.7891 1.16016C17.8164 1.14193 17.8346 1.12826 17.8438 1.11914C17.862 1.11003 17.8757 1.08724 17.8848 1.05078C17.903 1.01432 17.9349 0.996094 17.9805 0.996094C18.0352 0.986979 18.0944 0.986979 18.1582 0.996094C18.222 0.996094 18.2812 0.996094 18.3359 0.996094C18.3906 0.986979 18.4362 0.964193 18.4727 0.927734C18.5456 0.873047 18.6048 0.827474 18.6504 0.791016C18.7051 0.754557 18.7962 0.736328 18.9238 0.736328C19.0788 0.718099 19.1973 0.722656 19.2793 0.75C19.3613 0.768229 19.4115 0.854818 19.4297 1.00977C19.457 1.29232 19.4661 1.66146 19.457 2.11719C19.4479 2.57292 19.4251 3.07422 19.3887 3.62109C19.3522 4.16797 19.3112 4.74674 19.2656 5.35742C19.2201 5.95898 19.1699 6.55143 19.1152 7.13477C19.0697 7.7181 19.0241 8.27409 18.9785 8.80273C18.9421 9.32227 18.9147 9.76888 18.8965 10.1426C18.8783 10.3522 18.8646 10.6074 18.8555 10.9082C18.8555 11.1999 18.8555 11.5189 18.8555 11.8652C18.8555 12.2025 18.8555 12.5579 18.8555 12.9316C18.8555 13.2962 18.8509 13.6562 18.8418 14.0117C19.1243 13.1367 19.4297 12.3757 19.7578 11.7285C20.0859 11.0723 20.4141 10.5254 20.7422 10.0879C21.0703 9.65039 21.3848 9.31771 21.6855 9.08984C21.9954 8.86198 22.2689 8.72982 22.5059 8.69336C22.5605 8.68424 22.6562 8.69792 22.793 8.73438C22.9388 8.77083 23.0892 8.81185 23.2441 8.85742C23.3991 8.90299 23.5404 8.95312 23.668 9.00781C23.7956 9.05339 23.8685 9.08529 23.8867 9.10352C23.9232 9.14909 23.9779 9.21289 24.0508 9.29492C24.1237 9.36784 24.1966 9.4681 24.2695 9.5957C24.3516 9.72331 24.4245 9.88737 24.4883 10.0879C24.5612 10.2884 24.6204 10.5299 24.666 10.8125ZM35.5352 19.918C35.5352 20 35.4668 20.1003 35.3301 20.2188C35.1934 20.3372 35.0202 20.3965 34.8105 20.3965C34.7467 20.3965 34.6283 20.3646 34.4551 20.3008C34.291 20.237 34.1178 20.1413 33.9355 20.0137C33.7533 19.8952 33.5892 19.7493 33.4434 19.5762C33.2975 19.3939 33.2201 19.1888 33.2109 18.9609C33.1927 18.8607 33.1836 18.724 33.1836 18.5508C33.1836 18.3685 33.1836 18.1589 33.1836 17.9219C33.1836 17.5573 33.1836 17.1517 33.1836 16.7051C33.1836 16.2585 33.1927 15.8073 33.2109 15.3516C33.1471 15.6797 33.0697 16.0215 32.9785 16.377C32.8874 16.7233 32.7734 17.0697 32.6367 17.416C32.5 17.7624 32.3405 18.1042 32.1582 18.4414C31.9759 18.7786 31.7663 19.1022 31.5293 19.4121C31.4017 19.5762 31.265 19.7174 31.1191 19.8359C30.9824 19.9453 30.8457 20.0365 30.709 20.1094C30.5723 20.1914 30.4447 20.2507 30.3262 20.2871C30.2077 20.3236 30.1165 20.3418 30.0527 20.3418C30.0163 20.3418 29.9297 20.3008 29.793 20.2188C29.6654 20.1458 29.5104 20.0501 29.3281 19.9316C29.1549 19.804 28.9681 19.6673 28.7676 19.5215C28.5671 19.3665 28.3757 19.2161 28.1934 19.0703C28.0111 18.9154 27.847 18.7741 27.7012 18.6465C27.5553 18.5098 27.4505 18.4004 27.3867 18.3184C27.3229 18.2272 27.2637 18.0723 27.209 17.8535C27.1634 17.6348 27.1224 17.3659 27.0859 17.0469C27.0495 16.7279 27.0176 16.3678 26.9902 15.9668C26.972 15.5658 26.9629 15.1374 26.9629 14.6816C26.9629 14.4355 26.9674 14.1165 26.9766 13.7246C26.9857 13.3327 27.0039 12.9134 27.0312 12.4668C27.0586 12.0111 27.0905 11.5553 27.127 11.0996C27.1725 10.6348 27.2227 10.2201 27.2773 9.85547C27.3411 9.48177 27.4141 9.18099 27.4961 8.95312C27.5781 8.71615 27.6738 8.59766 27.7832 8.59766C27.8561 8.59766 27.9837 8.62044 28.166 8.66602C28.3483 8.70247 28.5352 8.7207 28.7266 8.7207C29.0091 8.7207 29.2051 8.69792 29.3145 8.65234C29.4329 8.59766 29.5195 8.57031 29.5742 8.57031C29.6654 8.57031 29.7109 8.64779 29.7109 8.80273C29.7109 8.84831 29.7109 8.89388 29.7109 8.93945C29.7109 8.97591 29.7018 9.02148 29.6836 9.07617C29.6745 9.13086 29.6517 9.27214 29.6152 9.5C29.5879 9.72786 29.5514 10.0195 29.5059 10.375C29.4603 10.7305 29.4147 11.1315 29.3691 11.5781C29.3236 12.0156 29.278 12.4759 29.2324 12.959C29.196 13.4421 29.1641 13.9297 29.1367 14.4219C29.1094 14.9141 29.0957 15.3835 29.0957 15.8301C29.0957 16.1309 29.1003 16.4316 29.1094 16.7324C29.1276 17.0332 29.1549 17.3066 29.1914 17.5527C29.2279 17.7988 29.278 17.9993 29.3418 18.1543C29.4056 18.3001 29.4831 18.373 29.5742 18.373C29.6562 18.373 29.7702 18.3366 29.916 18.2637C30.071 18.1816 30.2487 18.0221 30.4492 17.7852C30.6589 17.5482 30.8867 17.2109 31.1328 16.7734C31.3789 16.3359 31.6432 15.7572 31.9258 15.0371C32.2174 14.3079 32.5182 13.4193 32.8281 12.3711C33.1471 11.3138 33.4707 10.056 33.7988 8.59766C33.7988 8.57031 33.8125 8.55208 33.8398 8.54297C33.8763 8.52474 33.9173 8.51562 33.9629 8.51562C34.0814 8.51562 34.2318 8.5293 34.4141 8.55664C34.5964 8.57487 34.7695 8.60677 34.9336 8.65234C35.1068 8.6888 35.2526 8.73438 35.3711 8.78906C35.4987 8.84375 35.5625 8.90299 35.5625 8.9668C35.5625 9.37695 35.5443 9.82357 35.5078 10.3066C35.4714 10.7897 35.4303 11.291 35.3848 11.8105C35.3392 12.321 35.2982 12.8451 35.2617 13.3828C35.2253 13.9206 35.207 14.4538 35.207 14.9824C35.207 15.9303 35.2344 16.8372 35.2891 17.7031C35.3529 18.5599 35.4349 19.2982 35.5352 19.918ZM49.0293 8.85742C49.002 8.90299 48.9062 9.05794 48.7422 9.32227C48.5872 9.57747 48.3867 9.9056 48.1406 10.3066C47.8945 10.6986 47.612 11.1497 47.293 11.6602C46.9831 12.1615 46.6595 12.6855 46.3223 13.2324C45.9941 13.7702 45.666 14.3079 45.3379 14.8457C45.0098 15.3835 44.6999 15.8893 44.4082 16.3633C44.1257 16.8281 43.8796 17.2428 43.6699 17.6074C43.4603 17.972 43.3053 18.2454 43.2051 18.4277C43.1048 18.61 42.9635 18.8926 42.7812 19.2754C42.599 19.6582 42.3893 20.0957 42.1523 20.5879C41.9154 21.0892 41.6602 21.627 41.3867 22.2012C41.1224 22.7754 40.8535 23.3496 40.5801 23.9238C40.3158 24.5072 40.056 25.0677 39.8008 25.6055C39.5547 26.1523 39.3314 26.64 39.1309 27.0684C38.9395 27.4967 38.7799 27.8477 38.6523 28.1211C38.5247 28.4036 38.4518 28.5723 38.4336 28.627C38.3516 28.8366 38.2741 28.9642 38.2012 29.0098C38.1374 29.0645 38.0417 29.1055 37.9141 29.1328C37.8503 29.1419 37.8001 29.1237 37.7637 29.0781C37.7272 29.0326 37.6953 28.9779 37.668 28.9141C37.6406 28.8503 37.6133 28.791 37.5859 28.7363C37.5586 28.6908 37.5267 28.6634 37.4902 28.6543C37.3717 28.6361 37.3034 28.6087 37.2852 28.5723C37.276 28.5449 37.2487 28.4857 37.2031 28.3945C37.1758 28.3581 37.1484 28.3353 37.1211 28.3262C37.0938 28.3262 37.0664 28.3262 37.0391 28.3262C37.0117 28.3262 36.9935 28.3216 36.9844 28.3125C36.9661 28.3034 36.957 28.276 36.957 28.2305C36.9753 28.0755 36.9889 27.9206 36.998 27.7656C37.0163 27.6107 37.0391 27.4694 37.0664 27.3418C37.0938 27.2415 37.1849 27.0319 37.3398 26.7129C37.5039 26.3939 37.7044 26.002 37.9414 25.5371C38.1784 25.0814 38.4427 24.571 38.7344 24.0059C39.0352 23.4499 39.3359 22.8802 39.6367 22.2969C39.9466 21.7227 40.2474 21.153 40.5391 20.5879C40.8398 20.0228 41.1087 19.5078 41.3457 19.043C41.2272 18.7878 41.0677 18.4596 40.8672 18.0586C40.6667 17.6484 40.4479 17.1973 40.2109 16.7051C39.974 16.2038 39.7188 15.6751 39.4453 15.1191C39.181 14.5632 38.9212 14.0117 38.666 13.4648C38.4108 12.918 38.1647 12.3893 37.9277 11.8789C37.6908 11.3685 37.4811 10.9128 37.2988 10.5117C37.1257 10.1016 36.9889 9.76432 36.8887 9.5C36.7884 9.22656 36.7383 9.05794 36.7383 8.99414C36.7474 8.88477 36.7702 8.81185 36.8066 8.77539C36.8431 8.72982 36.8932 8.70703 36.957 8.70703C37.0117 8.70703 37.071 8.7207 37.1348 8.74805C37.2077 8.77539 37.2806 8.80273 37.3535 8.83008C37.4629 8.87565 37.5677 8.92122 37.668 8.9668C37.7682 9.00326 37.8411 8.98503 37.8867 8.91211C37.9141 8.83919 37.9915 8.80273 38.1191 8.80273C38.2467 8.79362 38.3516 8.81185 38.4336 8.85742C38.4609 8.88477 38.4837 8.89388 38.502 8.88477C38.5293 8.87565 38.5521 8.85742 38.5703 8.83008C38.5977 8.80273 38.625 8.77539 38.6523 8.74805C38.6888 8.71159 38.7298 8.68424 38.7754 8.66602C38.8757 8.64779 38.9668 8.66602 39.0488 8.7207C39.1309 8.77539 39.2083 8.89388 39.2812 9.07617C39.3268 9.21289 39.418 9.44987 39.5547 9.78711C39.7005 10.1243 39.8691 10.5163 40.0605 10.9629C40.2611 11.4095 40.4798 11.8926 40.7168 12.4121C40.9538 12.9225 41.1908 13.4284 41.4277 13.9297C41.6647 14.4219 41.888 14.8867 42.0977 15.3242C42.3164 15.7617 42.5078 16.1263 42.6719 16.418C42.918 15.9622 43.1823 15.4792 43.4648 14.9688C43.7565 14.4492 44.0482 13.9342 44.3398 13.4238C44.6406 12.9043 44.9368 12.3984 45.2285 11.9062C45.5202 11.4141 45.7936 10.9583 46.0488 10.5391C46.3132 10.1198 46.5456 9.75521 46.7461 9.44531C46.9466 9.1263 47.1107 8.88477 47.2383 8.7207C47.3112 8.62956 47.3477 8.57031 47.3477 8.54297C47.3477 8.51562 47.3841 8.48828 47.457 8.46094C47.5117 8.44271 47.5573 8.42448 47.5938 8.40625C47.6393 8.38802 47.7077 8.38802 47.7988 8.40625C47.8809 8.42448 47.9447 8.43359 47.9902 8.43359C48.0358 8.43359 48.0723 8.46094 48.0996 8.51562C48.1178 8.54297 48.1452 8.55208 48.1816 8.54297C48.2181 8.53385 48.2591 8.52018 48.3047 8.50195C48.3594 8.47461 48.4141 8.45182 48.4688 8.43359C48.5234 8.40625 48.5781 8.39714 48.6328 8.40625C48.6966 8.41536 48.7604 8.42904 48.8242 8.44727C48.888 8.45638 48.9427 8.47917 48.9883 8.51562C49.043 8.55208 49.0749 8.59766 49.084 8.65234C49.0931 8.70703 49.0749 8.77539 49.0293 8.85742ZM58.9277 3.78516C58.9277 3.79427 58.9232 3.93555 58.9141 4.20898C58.9141 4.48242 58.9095 4.84701 58.9004 5.30273C58.9004 5.75846 58.8958 6.28711 58.8867 6.88867C58.8867 7.49023 58.8822 8.12826 58.873 8.80273C58.8639 9.4681 58.8548 10.1517 58.8457 10.8535C58.8457 11.5553 58.8411 12.2344 58.832 12.8906C58.832 13.5378 58.8275 14.1439 58.8184 14.709C58.8184 15.2741 58.8184 15.7572 58.8184 16.1582V16.9785C58.946 16.9967 59.069 17.0059 59.1875 17.0059C59.3151 17.0059 59.4427 17.0059 59.5703 17.0059C59.9531 17.0059 60.4089 16.9694 60.9375 16.8965C61.4753 16.8236 62.0495 16.6686 62.6602 16.4316C63.2799 16.1855 63.9225 15.8346 64.5879 15.3789C65.2624 14.9141 65.9232 14.2897 66.5703 13.5059C67.3451 12.5762 67.8965 11.6465 68.2246 10.7168C68.5618 9.78711 68.7305 8.85742 68.7305 7.92773C68.7305 7.14388 68.6484 6.46484 68.4844 5.89062C68.3203 5.31641 68.0879 4.83333 67.7871 4.44141C67.4954 4.04036 67.1445 3.7168 66.7344 3.4707C66.3333 3.22461 65.8867 3.0332 65.3945 2.89648C64.9115 2.75977 64.3919 2.66862 63.8359 2.62305C63.2891 2.57747 62.7285 2.55469 62.1543 2.55469C61.7441 2.55469 61.2702 2.60482 60.7324 2.70508C60.1947 2.80534 59.6387 2.93294 59.0645 3.08789C58.4993 3.24284 57.9388 3.4069 57.3828 3.58008C56.8268 3.75326 56.321 3.91732 55.8652 4.07227C55.4186 4.22721 55.0449 4.35482 54.7441 4.45508C54.4434 4.55534 54.2611 4.60547 54.1973 4.60547C54.1061 4.51432 54.0286 4.42773 53.9648 4.3457C53.9102 4.2819 53.86 4.22266 53.8145 4.16797C53.7689 4.11328 53.7461 4.08138 53.7461 4.07227C53.7461 4.05404 53.7598 4.03125 53.7871 4.00391C53.8053 3.98568 53.8372 3.96289 53.8828 3.93555C53.9284 3.9082 53.9967 3.88542 54.0879 3.86719C54.0605 3.8125 54.0423 3.77604 54.0332 3.75781C54.0332 3.73958 54.0332 3.72135 54.0332 3.70312C54.0332 3.67578 54.0378 3.64844 54.0469 3.62109C54.056 3.59375 54.097 3.56641 54.1699 3.53906C54.0332 3.47526 53.9375 3.42057 53.8828 3.375C53.8281 3.32031 53.7917 3.2793 53.7734 3.25195C53.7643 3.22461 53.7643 3.20638 53.7734 3.19727C53.7826 3.18815 53.7871 3.18815 53.7871 3.19727C53.7871 3.16992 53.8053 3.15169 53.8418 3.14258C53.8783 3.13346 53.9056 3.10612 53.9238 3.06055C53.9238 3.05143 53.9512 2.99219 54.0059 2.88281C54.0605 2.77344 54.1745 2.64583 54.3477 2.5C54.5299 2.35417 54.7852 2.20378 55.1133 2.04883C55.4414 1.89388 55.8835 1.75716 56.4395 1.63867C56.6309 1.5931 56.8906 1.53385 57.2188 1.46094C57.5469 1.37891 57.9251 1.30143 58.3535 1.22852C58.791 1.1556 59.265 1.0918 59.7754 1.03711C60.2858 0.982422 60.819 0.955078 61.375 0.955078C62.8971 0.955078 64.2461 1.18294 65.4219 1.63867C66.5977 2.08529 67.582 2.68685 68.375 3.44336C69.1771 4.19987 69.7832 5.07487 70.1934 6.06836C70.6035 7.06185 70.8086 8.10091 70.8086 9.18555C70.8086 9.82357 70.722 10.4798 70.5488 11.1543C70.3757 11.8288 70.125 12.4941 69.7969 13.1504C69.4779 13.8066 69.0905 14.4401 68.6348 15.0508C68.179 15.6615 67.6686 16.222 67.1035 16.7324C66.5384 17.2337 65.9277 17.6758 65.2715 18.0586C64.6243 18.4414 63.9408 18.7331 63.2207 18.9336C62.5007 19.1341 61.8444 19.2754 61.252 19.3574C60.6686 19.4303 60.1309 19.4668 59.6387 19.4668C58.9824 19.4668 58.4492 19.4303 58.0391 19.3574C57.6289 19.2754 57.3099 19.1888 57.082 19.0977C56.8633 18.9974 56.7129 18.9017 56.6309 18.8105C56.5579 18.7194 56.5215 18.6602 56.5215 18.6328C56.4668 18.5781 56.4395 18.4915 56.4395 18.373C56.4486 18.1543 56.4714 17.5254 56.5078 16.4863C56.526 16.0488 56.5443 15.4974 56.5625 14.832C56.5898 14.1667 56.6172 13.3646 56.6445 12.4258C56.681 11.4779 56.722 10.3704 56.7676 9.10352C56.8223 7.83659 56.8815 6.38281 56.9453 4.74219C56.9453 4.55078 56.9954 4.41862 57.0957 4.3457C57.2051 4.27279 57.3372 4.2181 57.4922 4.18164C57.6471 4.14518 57.8112 4.11328 57.9844 4.08594C58.1667 4.04948 58.3262 3.97656 58.4629 3.86719C58.5176 3.82161 58.5768 3.78516 58.6406 3.75781C58.7135 3.72135 58.7728 3.70312 58.8184 3.70312C58.8913 3.70312 58.9277 3.73047 58.9277 3.78516ZM76.25 2.1582C76.2591 2.34049 76.25 2.54557 76.2227 2.77344C76.2044 2.99219 76.168 3.20638 76.1133 3.41602C76.0677 3.62565 75.9993 3.8125 75.9082 3.97656C75.8262 4.14062 75.7259 4.25456 75.6074 4.31836C75.3066 4.47331 75.0423 4.55078 74.8145 4.55078C74.6322 4.55078 74.4727 4.50977 74.3359 4.42773C74.2083 4.33659 74.0807 4.23633 73.9531 4.12695C73.7708 3.98112 73.6159 3.78971 73.4883 3.55273C73.3698 3.31576 73.3105 3.08789 73.3105 2.86914C73.3105 2.69596 73.3379 2.48633 73.3926 2.24023C73.4564 1.98503 73.5339 1.73893 73.625 1.50195C73.7161 1.26497 73.8118 1.05078 73.9121 0.859375C74.0215 0.658854 74.1263 0.522135 74.2266 0.449219C74.3815 0.321615 74.5228 0.253255 74.6504 0.244141C74.7871 0.225911 74.8965 0.230469 74.9785 0.257812C75.179 0.303385 75.3568 0.36263 75.5117 0.435547C75.6667 0.499349 75.7943 0.604167 75.8945 0.75C76.0039 0.886719 76.0859 1.06901 76.1406 1.29688C76.1953 1.52474 76.2318 1.81185 76.25 2.1582ZM75.1289 8.26953C75.1745 8.3151 75.2064 8.46549 75.2246 8.7207C75.252 8.97591 75.2656 9.30859 75.2656 9.71875C75.2656 9.99219 75.2611 10.2884 75.252 10.6074C75.2428 10.9264 75.2292 11.2546 75.2109 11.5918C75.2018 11.929 75.1882 12.2708 75.1699 12.6172C75.1517 12.9544 75.138 13.278 75.1289 13.5879C75.1016 14.0983 75.0833 14.5723 75.0742 15.0098C75.0742 15.4382 75.0742 15.8529 75.0742 16.2539C75.0742 16.7826 75.0788 17.2656 75.0879 17.7031C75.097 18.1406 75.1016 18.5052 75.1016 18.7969C75.1016 19.1159 75.0879 19.362 75.0605 19.5352C75.0423 19.6992 74.9967 19.7904 74.9238 19.8086C74.8418 19.8268 74.7734 19.8678 74.7188 19.9316C74.6641 19.9863 74.6139 20.041 74.5684 20.0957C74.5228 20.1504 74.4681 20.196 74.4043 20.2324C74.3496 20.278 74.2812 20.2917 74.1992 20.2734C74.1536 20.2643 74.0762 20.2233 73.9668 20.1504C73.8574 20.0775 73.7389 19.9909 73.6113 19.8906C73.4928 19.7812 73.3789 19.6582 73.2695 19.5215C73.1602 19.3848 73.0872 19.2435 73.0508 19.0977C73.0326 19.0247 73.0143 18.8789 72.9961 18.6602C72.987 18.4414 72.9779 18.1771 72.9688 17.8672C72.9596 17.5573 72.9505 17.2155 72.9414 16.8418C72.9323 16.459 72.9232 16.0762 72.9141 15.6934C72.9141 15.3014 72.9141 14.9186 72.9141 14.5449C72.9141 14.1712 72.9141 13.834 72.9141 13.5332C72.9141 13.0684 72.9277 12.5944 72.9551 12.1113C72.9915 11.6283 73.028 11.1771 73.0645 10.7578C73.11 10.3385 73.151 9.97396 73.1875 9.66406C73.2331 9.34505 73.265 9.12174 73.2832 8.99414C73.3197 8.77539 73.3561 8.60677 73.3926 8.48828C73.4382 8.36068 73.4837 8.26953 73.5293 8.21484C73.584 8.16016 73.6341 8.12826 73.6797 8.11914C73.7344 8.10091 73.7891 8.08724 73.8438 8.07812C73.9531 8.0599 74.0762 8.05534 74.2129 8.06445C74.3587 8.07357 74.4954 8.08724 74.623 8.10547C74.7507 8.1237 74.86 8.15104 74.9512 8.1875C75.0514 8.21484 75.1107 8.24219 75.1289 8.26953ZM85.875 19.4121C85.875 19.5215 85.834 19.6445 85.752 19.7812C85.679 19.9089 85.5697 19.9727 85.4238 19.9727C85.3418 19.9727 85.278 19.9499 85.2324 19.9043C85.1868 19.8587 85.1413 19.8359 85.0957 19.8359C85.0319 19.8359 84.9681 19.8587 84.9043 19.9043C84.8496 19.9499 84.7539 19.9727 84.6172 19.9727C84.4349 19.9727 84.2754 19.9089 84.1387 19.7812C84.0111 19.6445 83.9062 19.4759 83.8242 19.2754C83.7422 19.0658 83.6784 18.8424 83.6328 18.6055C83.5964 18.3594 83.5781 18.1315 83.5781 17.9219C83.5781 17.5117 83.5918 17.0469 83.6191 16.5273C83.6556 15.9987 83.6921 15.4609 83.7285 14.9141C83.7741 14.3581 83.8105 13.8066 83.8379 13.2598C83.8743 12.7129 83.8926 12.207 83.8926 11.7422C83.8926 11.1224 83.8516 10.6393 83.7695 10.293C83.6875 9.94661 83.5417 9.77344 83.332 9.77344C83.1315 9.80078 82.9264 9.97396 82.7168 10.293C82.5072 10.612 82.293 11.0221 82.0742 11.5234C81.8555 12.0156 81.6413 12.5762 81.4316 13.2051C81.222 13.8249 81.0169 14.4629 80.8164 15.1191C80.625 15.7663 80.4427 16.3997 80.2695 17.0195C80.0964 17.6302 79.9414 18.1771 79.8047 18.6602C79.668 19.1432 79.5495 19.5352 79.4492 19.8359C79.349 20.1276 79.2806 20.2734 79.2441 20.2734C79.1712 20.2734 79.1165 20.2552 79.0801 20.2188C79.0436 20.1914 79.0072 20.1595 78.9707 20.123C78.9434 20.0866 78.9069 20.0501 78.8613 20.0137C78.8158 19.9863 78.7474 19.9727 78.6562 19.9727C78.5742 19.9727 78.5195 19.9818 78.4922 20C78.4648 20.0182 78.4329 20.041 78.3965 20.0684C78.36 20.0957 78.3145 20.1185 78.2598 20.1367C78.2051 20.1549 78.1094 20.1641 77.9727 20.1641C77.8086 20.1641 77.6445 20.123 77.4805 20.041C77.3255 19.959 77.248 19.8314 77.248 19.6582C77.248 19.5488 77.2663 19.3255 77.3027 18.9883C77.3392 18.6419 77.3802 18.2227 77.4258 17.7305C77.4805 17.2292 77.5352 16.6732 77.5898 16.0625C77.6536 15.4427 77.7083 14.8047 77.7539 14.1484C77.8086 13.4922 77.8542 12.8359 77.8906 12.1797C77.9271 11.5234 77.9453 10.8991 77.9453 10.3066C77.9453 10.015 77.9408 9.74609 77.9316 9.5C77.9225 9.24479 77.918 9.00326 77.918 8.77539C77.918 8.7207 77.9453 8.69336 78 8.69336C78.1094 8.69336 78.1914 8.71615 78.2461 8.76172C78.3099 8.79818 78.3555 8.83919 78.3828 8.88477C78.4102 8.93034 78.4238 8.97591 78.4238 9.02148C78.4329 9.05794 78.4421 9.07617 78.4512 9.07617C78.4785 9.07617 78.5104 9.0625 78.5469 9.03516C78.5833 8.9987 78.6198 8.96224 78.6562 8.92578C78.7018 8.88932 78.7428 8.85742 78.7793 8.83008C78.8158 8.79362 78.8477 8.77539 78.875 8.77539H79.0117C79.1484 8.77539 79.2441 8.75716 79.2988 8.7207C79.3535 8.67513 79.39 8.62956 79.4082 8.58398C79.4355 8.5293 79.4538 8.48372 79.4629 8.44727C79.472 8.40169 79.4993 8.37891 79.5449 8.37891C79.5723 8.37891 79.6087 8.40169 79.6543 8.44727C79.709 8.48372 79.7591 8.55208 79.8047 8.65234C79.8594 8.74349 79.9049 8.86654 79.9414 9.02148C79.9779 9.17643 79.9961 9.36328 79.9961 9.58203C79.9961 9.8737 79.9824 10.2428 79.9551 10.6895C79.9368 11.1361 79.9095 11.6146 79.873 12.125C79.8457 12.6263 79.8184 13.1367 79.791 13.6562C79.7637 14.1667 79.7454 14.6315 79.7363 15.0508C79.8366 14.6589 79.9551 14.2259 80.0918 13.752C80.2376 13.2689 80.4017 12.7812 80.584 12.2891C80.7754 11.7969 80.9805 11.3184 81.1992 10.8535C81.418 10.3796 81.6549 9.96029 81.9102 9.5957C82.1654 9.23112 82.4342 8.93945 82.7168 8.7207C82.9993 8.49284 83.2956 8.37891 83.6055 8.37891C84.0977 8.37891 84.4987 8.47005 84.8086 8.65234C85.1276 8.83464 85.3783 9.08529 85.5605 9.4043C85.7428 9.72331 85.8659 10.097 85.9297 10.5254C86.0026 10.9538 86.0391 11.4141 86.0391 11.9062C86.0391 12.3255 86.0208 12.7676 85.9844 13.2324C85.9479 13.6882 85.9069 14.1484 85.8613 14.6133C85.8249 15.069 85.7884 15.5202 85.752 15.9668C85.7246 16.4134 85.7109 16.8327 85.7109 17.2246C85.7109 17.7077 85.7383 18.1452 85.793 18.5371C85.8477 18.9199 85.875 19.2116 85.875 19.4121ZM96.1426 10.8125C96.1608 10.9401 96.1745 11.0859 96.1836 11.25C96.1927 11.4049 96.1973 11.569 96.1973 11.7422C96.1973 12.1797 96.179 12.6901 96.1426 13.2734C96.1061 13.8568 96.0605 14.5495 96.0059 15.3516C95.9876 15.6615 95.974 16.0579 95.9648 16.541C95.9557 17.015 95.9512 17.5072 95.9512 18.0176C95.9512 18.4551 95.9557 18.8789 95.9648 19.2891C95.9831 19.6992 96.0059 20.0592 96.0332 20.3691C96.0514 20.5059 96.0195 20.5788 95.9375 20.5879C95.8555 20.597 95.7643 20.5879 95.6641 20.5605C95.6185 20.5423 95.5775 20.5423 95.541 20.5605C95.5046 20.5788 95.4681 20.6016 95.4316 20.6289C95.4043 20.6562 95.3724 20.6745 95.3359 20.6836C95.3086 20.7018 95.2676 20.6882 95.2129 20.6426C95.1673 20.6061 95.0898 20.5514 94.9805 20.4785C94.8711 20.4056 94.7526 20.3236 94.625 20.2324C94.5065 20.1504 94.3926 20.0592 94.2832 19.959C94.1738 19.8587 94.0918 19.7676 94.0371 19.6855C93.9824 19.5579 93.946 19.2435 93.9277 18.7422C93.9095 18.2409 93.9004 17.6348 93.9004 16.9238V15.0781C93.9095 14.6771 93.9277 14.2806 93.9551 13.8887C93.9824 13.4967 94.0143 13.1185 94.0508 12.7539C94.0872 12.3893 94.1191 12.0475 94.1465 11.7285C94.1738 11.4004 94.1875 11.1042 94.1875 10.8398C94.1875 10.4206 94.1283 10.1061 94.0098 9.89648C93.9824 9.86003 93.9004 9.88281 93.7637 9.96484C93.627 10.0469 93.4492 10.2201 93.2305 10.4844C93.0208 10.7487 92.7793 11.1224 92.5059 11.6055C92.2415 12.0885 91.959 12.7129 91.6582 13.4785C91.3665 14.2441 91.0658 15.1693 90.7559 16.2539C90.4551 17.3385 90.168 18.6146 89.8945 20.082C89.8672 20.2096 89.8307 20.2962 89.7852 20.3418C89.7487 20.3965 89.6758 20.4238 89.5664 20.4238C89.4935 20.4238 89.4297 20.3646 89.375 20.2461C89.3294 20.1367 89.2702 20.0456 89.1973 19.9727C89.0241 19.9727 88.8646 19.9544 88.7188 19.918C88.582 19.8724 88.5 19.7585 88.4727 19.5762C88.4727 19.5124 88.4544 19.4531 88.418 19.3984C88.3906 19.3438 88.3542 19.2845 88.3086 19.2207C88.2721 19.1478 88.2357 19.0749 88.1992 19.002C88.1719 18.9199 88.1582 18.8242 88.1582 18.7148C88.1855 18.0768 88.2083 17.3841 88.2266 16.6367C88.2448 15.8802 88.263 15.11 88.2812 14.3262C88.3086 13.5332 88.3314 12.7402 88.3496 11.9473C88.3678 11.1543 88.3906 10.3978 88.418 9.67773C88.4453 8.94857 88.4681 8.27409 88.4863 7.6543C88.5137 7.02539 88.5456 6.48307 88.582 6.02734C88.6914 4.66927 88.8008 3.60286 88.9102 2.82812C89.0195 2.04427 89.0879 1.58854 89.1152 1.46094C89.1426 1.36979 89.1699 1.30143 89.1973 1.25586C89.2246 1.21029 89.2474 1.17839 89.2656 1.16016C89.293 1.14193 89.3112 1.12826 89.3203 1.11914C89.3385 1.11003 89.3522 1.08724 89.3613 1.05078C89.3796 1.01432 89.4115 0.996094 89.457 0.996094C89.5117 0.986979 89.571 0.986979 89.6348 0.996094C89.6986 0.996094 89.7578 0.996094 89.8125 0.996094C89.8672 0.986979 89.9128 0.964193 89.9492 0.927734C90.0221 0.873047 90.0814 0.827474 90.127 0.791016C90.1816 0.754557 90.2728 0.736328 90.4004 0.736328C90.5553 0.718099 90.6738 0.722656 90.7559 0.75C90.8379 0.768229 90.888 0.854818 90.9062 1.00977C90.9336 1.29232 90.9427 1.66146 90.9336 2.11719C90.9245 2.57292 90.9017 3.07422 90.8652 3.62109C90.8288 4.16797 90.7878 4.74674 90.7422 5.35742C90.6966 5.95898 90.6465 6.55143 90.5918 7.13477C90.5462 7.7181 90.5007 8.27409 90.4551 8.80273C90.4186 9.32227 90.3913 9.76888 90.373 10.1426C90.3548 10.3522 90.3411 10.6074 90.332 10.9082C90.332 11.1999 90.332 11.5189 90.332 11.8652C90.332 12.2025 90.332 12.5579 90.332 12.9316C90.332 13.2962 90.3275 13.6562 90.3184 14.0117C90.6009 13.1367 90.9062 12.3757 91.2344 11.7285C91.5625 11.0723 91.8906 10.5254 92.2188 10.0879C92.5469 9.65039 92.8613 9.31771 93.1621 9.08984C93.472 8.86198 93.7454 8.72982 93.9824 8.69336C94.0371 8.68424 94.1328 8.69792 94.2695 8.73438C94.4154 8.77083 94.5658 8.81185 94.7207 8.85742C94.8757 8.90299 95.0169 8.95312 95.1445 9.00781C95.2721 9.05339 95.3451 9.08529 95.3633 9.10352C95.3997 9.14909 95.4544 9.21289 95.5273 9.29492C95.6003 9.36784 95.6732 9.4681 95.7461 9.5957C95.8281 9.72331 95.901 9.88737 95.9648 10.0879C96.0378 10.2884 96.097 10.5299 96.1426 10.8125Z" fill="white"/>
</svg>
